<svg width="0" height="0" class="hidden">
  <symbol xmlns="http://www.w3.org/2000/svg" viewBox="0 0 256 256" id="plus-square-thin">
    <path d="M208,36H48A12,12,0,0,0,36,48V208a12,12,0,0,0,12,12H208a12,12,0,0,0,12-12V48A12,12,0,0,0,208,36Zm4,172a4,4,0,0,1-4,4H48a4,4,0,0,1-4-4V48a4,4,0,0,1,4-4H208a4,4,0,0,1,4,4Zm-40-80a4,4,0,0,1-4,4H132v36a4,4,0,0,1-8,0V132H88a4,4,0,0,1,0-8h36V88a4,4,0,0,1,8,0v36h36A4,4,0,0,1,172,128Z"></path>
  </symbol>
  <symbol xmlns="http://www.w3.org/2000/svg" viewBox="0 0 256 256" id="pencil-thin">
    <path d="M224.49,76.2,179.8,31.51a12,12,0,0,0-17,0L39.52,154.83A11.9,11.9,0,0,0,36,163.31V208a12,12,0,0,0,12,12H92.69a12,12,0,0,0,8.48-3.51L224.48,93.17a12,12,0,0,0,0-17ZM45.66,160,136,69.65,158.34,92,68,182.34ZM44,208V169.66l21.17,21.17h0L86.34,212H48A4,4,0,0,1,44,208Zm52,2.34L73.66,188,164,97.65,186.34,120ZM218.83,87.51,192,114.34,141.66,64l26.82-26.83a4,4,0,0,1,5.66,0l44.69,44.68a4,4,0,0,1,0,5.66Z"></path>
  </symbol>
  <symbol xmlns="http://www.w3.org/2000/svg" viewBox="0 0 256 256" id="trash-thin">
    <path d="M216,52H172V40a20,20,0,0,0-20-20H104A20,20,0,0,0,84,40V52H40a4,4,0,0,0,0,8H52V208a12,12,0,0,0,12,12H192a12,12,0,0,0,12-12V60h12a4,4,0,0,0,0-8ZM92,40a12,12,0,0,1,12-12h48a12,12,0,0,1,12,12V52H92ZM196,208a4,4,0,0,1-4,4H64a4,4,0,0,1-4-4V60H196ZM108,104v64a4,4,0,0,1-8,0V104a4,4,0,0,1,8,0Zm48,0v64a4,4,0,0,1-8,0V104a4,4,0,0,1,8,0Z"></path>
  </symbol>
  <symbol xmlns="http://www.w3.org/2000/svg" viewBox="0 0 256 256" id="check-thin">
    <path d="M226.83,74.83l-128,128a4,4,0,0,1-5.66,0l-56-56a4,4,0,0,1,5.66-5.66L96,194.34,221.17,69.17a4,4,0,1,1,5.66,5.66Z"></path>
  </symbol>
  <symbol xmlns="http://www.w3.org/2000/svg" viewBox="0 0 256 256" id="x-thin">
    <path d="M202.83,197.17a4,4,0,0,1-5.66,5.66L128,133.66,58.83,202.83a4,4,0,0,1-5.66-5.66L122.34,128,53.17,58.83a4,4,0,0,1,5.66-5.66L128,122.34l69.17-69.17a4,4,0,1,1,5.66,5.66L133.66,128Z"></path>
  </symbol>
</svg>