<svg width="0" height="0" class="hidden">
  <symbol xmlns="http://www.w3.org/2000/svg" viewBox="0 0 256 256" id="plus-square-thin">
    <path d="M208,36H48A12,12,0,0,0,36,48V208a12,12,0,0,0,12,12H208a12,12,0,0,0,12-12V48A12,12,0,0,0,208,36Zm4,172a4,4,0,0,1-4,4H48a4,4,0,0,1-4-4V48a4,4,0,0,1,4-4H208a4,4,0,0,1,4,4Zm-40-80a4,4,0,0,1-4,4H132v36a4,4,0,0,1-8,0V132H88a4,4,0,0,1,0-8h36V88a4,4,0,0,1,8,0v36h36A4,4,0,0,1,172,128Z"></path>
  </symbol>
  <symbol xmlns="http://www.w3.org/2000/svg" viewBox="0 0 63 63" id="plus-bicolor">
    <rect width="63" height="63"></rect>
    <path d="M58.8913 0H4.1087C3.019 0 1.97394 0.432879 1.20341 1.20341C0.432879 1.97394 0 3.019 0 4.1087V58.8913C0 59.981 0.432879 61.0261 1.20341 61.7966C1.97394 62.5671 3.019 63 4.1087 63H58.8913C59.981 63 61.0261 62.5671 61.7966 61.7966C62.5671 61.0261 63 59.981 63 58.8913V4.1087C63 3.019 62.5671 1.97394 61.7966 1.20341C61.0261 0.432879 59.981 0 58.8913 0ZM60.2609 58.8913C60.2609 59.2545 60.1166 59.6029 59.8597 59.8597C59.6029 60.1166 59.2545 60.2609 58.8913 60.2609H4.1087C3.74546 60.2609 3.39711 60.1166 3.14027 59.8597C2.88342 59.6029 2.73913 59.2545 2.73913 58.8913V4.1087C2.73913 3.74546 2.88342 3.39711 3.14027 3.14027C3.39711 2.88342 3.74546 2.73913 4.1087 2.73913H58.8913C59.2545 2.73913 59.6029 2.88342 59.8597 3.14027C60.1166 3.39711 60.2609 3.74546 60.2609 4.1087V58.8913ZM46.5652 31.5C46.5652 31.8632 46.4209 32.2116 46.1641 32.4684C45.9072 32.7253 45.5589 32.8696 45.1957 32.8696H32.8696V45.1957C32.8696 45.5589 32.7253 45.9072 32.4684 46.1641C32.2116 46.4209 31.8632 46.5652 31.5 46.5652C31.1368 46.5652 30.7884 46.4209 30.5316 46.1641C30.2747 45.9072 30.1304 45.5589 30.1304 45.1957V32.8696H17.8043C17.4411 32.8696 17.0928 32.7253 16.8359 32.4684C16.5791 32.2116 16.4348 31.8632 16.4348 31.5C16.4348 31.1368 16.5791 30.7884 16.8359 30.5316C17.0928 30.2747 17.4411 30.1304 17.8043 30.1304H30.1304V17.8043C30.1304 17.4411 30.2747 17.0928 30.5316 16.8359C30.7884 16.5791 31.1368 16.4348 31.5 16.4348C31.8632 16.4348 32.2116 16.5791 32.4684 16.8359C32.7253 17.0928 32.8696 17.4411 32.8696 17.8043V30.1304H45.1957C45.5589 30.1304 45.9072 30.2747 46.1641 30.5316C46.4209 30.7884 46.5652 31.1368 46.5652 31.5Z" fill="#35566E"></path>
  <symbol xmlns="http://www.w3.org/2000/svg" viewBox="0 0 256 256" id="pencil-thin">
    <path d="M224.49,76.2,179.8,31.51a12,12,0,0,0-17,0L39.52,154.83A11.9,11.9,0,0,0,36,163.31V208a12,12,0,0,0,12,12H92.69a12,12,0,0,0,8.48-3.51L224.48,93.17a12,12,0,0,0,0-17ZM45.66,160,136,69.65,158.34,92,68,182.34ZM44,208V169.66l21.17,21.17h0L86.34,212H48A4,4,0,0,1,44,208Zm52,2.34L73.66,188,164,97.65,186.34,120ZM218.83,87.51,192,114.34,141.66,64l26.82-26.83a4,4,0,0,1,5.66,0l44.69,44.68a4,4,0,0,1,0,5.66Z"></path>
  </symbol>
  <symbol xmlns="http://www.w3.org/2000/svg" viewBox="0 0 256 256" id="trash-thin">
    <path d="M216,52H172V40a20,20,0,0,0-20-20H104A20,20,0,0,0,84,40V52H40a4,4,0,0,0,0,8H52V208a12,12,0,0,0,12,12H192a12,12,0,0,0,12-12V60h12a4,4,0,0,0,0-8ZM92,40a12,12,0,0,1,12-12h48a12,12,0,0,1,12,12V52H92ZM196,208a4,4,0,0,1-4,4H64a4,4,0,0,1-4-4V60H196ZM108,104v64a4,4,0,0,1-8,0V104a4,4,0,0,1,8,0Zm48,0v64a4,4,0,0,1-8,0V104a4,4,0,0,1,8,0Z"></path>
  </symbol>
  <symbol xmlns="http://www.w3.org/2000/svg" viewBox="0 0 256 256" id="check-thin">
    <path d="M226.83,74.83l-128,128a4,4,0,0,1-5.66,0l-56-56a4,4,0,0,1,5.66-5.66L96,194.34,221.17,69.17a4,4,0,1,1,5.66,5.66Z"></path>
  </symbol>
  <symbol xmlns="http://www.w3.org/2000/svg" viewBox="0 0 256 256" id="x-thin">
    <path d="M202.83,197.17a4,4,0,0,1-5.66,5.66L128,133.66,58.83,202.83a4,4,0,0,1-5.66-5.66L122.34,128,53.17,58.83a4,4,0,0,1,5.66-5.66L128,122.34l69.17-69.17a4,4,0,1,1,5.66,5.66L133.66,128Z"></path>
  </symbol>
  <symbol xmlns="http://www.w3.org/2000/svg" viewBox="0 0 256 256" id="checks-thin">
    <path d="M146.8,82.85l-89.6,88a4,4,0,0,1-5.6,0L13.2,133.14a4,4,0,0,1,5.6-5.71l35.6,35,86.8-85.24a4,4,0,0,1,5.6,5.7Zm96-5.65a4,4,0,0,0-5.65,0l-86.8,85.24-21.63-21.24a4,4,0,1,0-5.61,5.7l24.44,24a4,4,0,0,0,5.6,0l89.6-88A4,4,0,0,0,242.85,77.2Z"></path>
  </symbol>
</svg>